<svg xmlns="http://www.w3.org/2000/svg" version="1.1" xmlns:xlink="http://www.w3.org/1999/xlink" width="127.99999" height="127.99999"><svg width="127.99999" height="127.99999" viewBox="0 0 33.866665 33.866665" version="1.1" id="SvgjsSvg1288" xml:space="preserve" sodipodi:docname="favicon.svg" inkscape:version="1.4.2 (f4327f4, 2025-05-13)" inkscape:export-filename="favicon_1.svg" inkscape:export-xdpi="20.841055" inkscape:export-ydpi="20.841055" xmlns:inkscape="http://www.inkscape.org/namespaces/inkscape" xmlns:sodipodi="http://sodipodi.sourceforge.net/DTD/sodipodi-0.dtd" xmlns:xlink="http://www.w3.org/1999/xlink" xmlns="http://www.w3.org/2000/svg" xmlns:svg="http://www.w3.org/2000/svg"><sodipodi:namedview id="SvgjsSodipodi:namedview1287" pagecolor="#ffffff" bordercolor="#000000" borderopacity="0.25" inkscape:showpageshadow="2" inkscape:pageopacity="0.0" inkscape:pagecheckerboard="0" inkscape:deskcolor="#d1d1d1" inkscape:document-units="mm" inkscape:zoom="2.825619" inkscape:cx="147.22438" inkscape:cy="147.40133" inkscape:window-width="1920" inkscape:window-height="1051" inkscape:window-x="-9" inkscape:window-y="-9" inkscape:window-maximized="1" inkscape:current-layer="svg1"><inkscape:page x="0" y="0" width="33.866665" height="33.866665" id="SvgjsInkscape:page1286" margin="0" bleed="0"></inkscape:page></sodipodi:namedview><defs id="SvgjsDefs1285"><linearGradient id="SvgjsLinearGradient1284"><stop style="stop-color:#ca5310;stop-opacity:1;" offset="0" id="SvgjsStop1283"></stop><stop style="stop-color:#f7cb15;stop-opacity:1;" offset="1" id="SvgjsStop1282"></stop></linearGradient><linearGradient xlink:href="#linearGradient10" id="SvgjsLinearGradient1281" x1="43.346973" y1="56.435963" x2="72.110596" y2="71.729851" gradientUnits="userSpaceOnUse" gradientTransform="matrix(0.43418866,0,0,0.43418866,-10.854728,-10.854728)"></linearGradient></defs><path id="SvgjsPath1280" style="display:inline;fill:#000000;fill-opacity:0.652284;stroke-width:0.115771" d="M 16.933447,0 A 16.933357,16.933357 0 0 0 0,16.933447 16.933357,16.933357 0 0 0 16.933447,33.866667 16.933357,16.933357 0 0 0 33.866667,16.933447 16.933357,16.933357 0 0 0 16.933447,0 Z m 0,2.1710354 A 14.762415,14.762415 0 0 1 31.695857,16.933447 14.762415,14.762415 0 0 1 16.933447,31.695857 14.762415,14.762415 0 0 1 2.1710354,16.933447 14.762415,14.762415 0 0 1 16.933447,2.1710354 Z"></path><path style="display:inline;fill:#ca5310;fill-opacity:1;stroke-width:0.11488" d="m 19.164613,27.213328 c 0,0 -1.592715,1.487481 -1.872732,1.59518 2.190268,1.266794 3.121289,1.1505 3.983353,1.1505 1.364189,-0.818514 1.878735,-1.201094 2.62545,-2.694523 -1.207765,1.261783 -2.643338,1.192243 -4.736071,-0.05116 z" id="SvgjsPath1279"></path><path style="display:inline;fill:#ca5310;fill-opacity:1;stroke-width:0.11488" d="m 9.1179513,14.328216 c 0,0 1.2351997,2.112218 0.8098597,3.466688 -0.7209319,2.295762 -2.8505462,3.141582 -2.8505462,6.95384 0,2.574661 2.0564215,2.932891 3.3432532,3.039321 -0.116105,-0.261236 -1.2977863,-1.458746 -1.2977863,-3.031203 0,-4.32178 1.3916613,-4.052614 2.0415143,-6.440729 0.399487,-1.468049 -0.585306,-2.730112 -2.0462947,-3.987917 z" id="SvgjsPath1278"></path><path style="display:inline;fill:#f7cb15;fill-opacity:1;stroke-width:0.11488" d="m 26.351466,15.217506 c -0.821923,1.534101 -0.73835,3.429839 -0.73835,5.236123 0,1.339193 0.872383,3.646275 0.872383,5.163492 0,3.4504 -3.093573,4.341887 -5.210265,4.341887 0.178834,-0.223033 3.039321,-1.704047 3.039321,-4.341887 0,-1.583292 -0.465189,-3.305242 -0.465189,-5.142862 0,-1.696375 0.768853,-4.412702 2.5021,-5.256753 z" id="SvgjsPath1277"></path><path style="display:inline;fill:#f7cb15;fill-opacity:1;stroke-width:0.11488" d="m 11.640595,26.46955 c 0,0 -0.331933,-0.347593 -0.250169,-1.629109 0.05362,-0.840477 0.178351,-1.525989 1.683494,-4.084734 1.505143,-2.558741 2.903939,-4.859947 1.521945,-7.035562 -1.381995,-2.175615 -1.435066,-2.072718 -1.544533,-3.376694 -0.273376,0.407104 -0.476095,0.871771 -0.535301,1.515791 -0.143399,1.559852 0.618643,1.989131 0.563356,3.840188 -0.04455,1.491449 -1.11234,3.023898 -2.070158,4.474308 -0.957819,1.45041 -1.9091385,2.88486 -1.416546,4.075291 0.492592,1.190431 1.493746,1.974226 2.047912,2.220521 z" id="SvgjsPath1276"></path><path style="display:inline;fill:#ca5310;fill-opacity:1;stroke-width:0.11488" d="m 19.51867,26.979436 c 1.433453,-1.651647 2.317286,-2.995668 2.317286,-5.704202 0,-2.708532 -2.333069,-7.160319 0.275988,-12.4107044 -1.682786,5.3167404 1.346252,8.3338374 1.346252,12.4107044 0,3.017475 -1.923188,4.808052 -3.939526,5.704202 z" id="SvgjsPath1275"></path><path style="display:inline;fill:#ca5310;fill-opacity:1;stroke-width:0.11488" d="m 16.448132,25.158994 c -0.525257,-0.561267 -1.733957,-1.87691 -1.733957,-3.380881 0,-1.969409 1.269724,-2.572673 1.269724,-4.882362 0,-1.778149 -1.476679,-3.315616 -1.476679,-3.315616 1.408712,5.257387 -2.249712,4.32478 -2.249712,8.592874 -0.117479,1.583626 1.268979,3.368902 2.406662,4.377302 0.784192,-0.490233 1.659297,-1.251653 1.783962,-1.391317 z" id="SvgjsPath1274"></path><path style="display:inline;fill:url(#linearGradient11);stroke-width:0.11488" d="m 17.801725,4.7760649 c -1.339247,0.7732144 -3.473535,2.922188 -3.473509,5.2102642 5.9e-5,5.2047629 4.372587,5.6540229 4.372587,11.3327769 0,3.32319 -4.477246,7.315869 -8.280285,6.468959 C 8.3948976,27.336973 7.3213831,25.3016 7.0772648,24.748744 c 0,1.812031 1.4212272,5.215947 5.5137952,5.215947 4.526255,0 8.684174,-4.842722 8.684174,-8.689457 0,-4.695682 -5.045176,-7.25864 -5.045176,-11.2794075 0,-1.4143259 0.512609,-4.0575136 1.571667,-5.2197616 z" id="SvgjsPath1273"></path></svg><style>@media (prefers-color-scheme: light) { :root { filter: none; } }
@media (prefers-color-scheme: dark) { :root { filter: none; } }
</style></svg>